<?xml version="1.0" standalone="no"?><!DOCTYPE svg PUBLIC "-//W3C//DTD SVG 1.1//EN" "http://www.w3.org/Graphics/SVG/1.1/DTD/svg11.dtd"><svg t="1783220078606" class="icon" viewBox="0 0 1024 1024" version="1.1" xmlns="http://www.w3.org/2000/svg" p-id="4606" xmlns:xlink="http://www.w3.org/1999/xlink" width="200" height="200"><path d="M511.6 138c-206.5 0-373.8 167.4-373.8 373.8s167.4 373.8 373.8 373.8 373.8-167.4 373.8-373.8S718 138 511.6 138z m-2.9 615.1C389.1 751.4 288.4 650.6 286.6 531c-1.8-125.7 99.8-228.5 225-228.8v-44.7l65.2 65.2c6.3 6.3 6.3 16.5 0 22.9l-65.2 65.2v-44.6c-100.2 0.3-179.1 92.2-157.3 196.2 12.8 60.9 62.1 110.2 123 123 98.8 20.8 186.8-49.6 195.5-142.6 0.8-8.5 7.4-15.2 15.9-15.2h32c9.2 0 16.9 7.7 16.3 16.9-8.8 117.7-108.1 210.4-228.3 208.6z" fill="#231815" p-id="4607"></path></svg>